<?xml version="1.0"?>
<svg width="16" height="16" xmlns="http://www.w3.org/2000/svg" xmlns:svg="http://www.w3.org/2000/svg">
 <!-- Created with SVG-edit - https://github.com/SVG-Edit/svgedit-->
 <g class="layer">
  <title>Layer 1</title>
  <rect fill="#000000" height="16" id="svg_23" stroke="#000000" stroke-opacity="0" width="16" x="0" y="0"/>
  <rect fill="#ffffff" height="6" id="svg_3" stroke="#000000" stroke-opacity="0" transform="matrix(1 0 0 1 0 0)" width="1" x="1" y="1"/>
  <rect fill="#ffffff" height="2" id="svg_4" stroke="#000000" stroke-opacity="0" transform="matrix(1 0 0 1 0 0)" width="3" x="2" y="5"/>
  <rect fill="#ffffff" height="6" id="svg_5" stroke="#000000" stroke-opacity="0" transform="matrix(1 0 0 1 0 0)" width="1" x="6" y="1"/>
  <rect fill="#ffffff" height="6" id="svg_6" stroke="#000000" stroke-opacity="0" transform="matrix(1 0 0 1 0 0)" width="1" x="9" y="1"/>
  <rect fill="#ffffff" height="2" id="svg_7" stroke="#000000" stroke-opacity="0" transform="matrix(1 0 0 1 0 0)" width="2" x="7" y="5"/>
  <rect fill="#ffffff" height="6" id="svg_8" stroke="#000000" stroke-opacity="0" transform="matrix(1 0 0 1 0 0)" width="1" x="11" y="1"/>
  <rect fill="#ffffff" height="6" id="svg_9" stroke="#000000" stroke-opacity="0" transform="matrix(1 0 0 1 0 0)" width="1" x="14" y="1"/>
  <rect fill="#ffffff" height="1" id="svg_10" stroke="#000000" stroke-opacity="0" transform="matrix(1 0 0 1 0 0)" width="2" x="12" y="1"/>
  <rect fill="#ffffff" height="1" id="svg_11" stroke="#000000" stroke-opacity="0" transform="matrix(1 0 0 1 0 0)" width="2" x="12" y="4"/>
  <rect fill="#ffffff" height="1" id="svg_12" stroke="#000000" stroke-opacity="0" transform="matrix(1 0 0 1 0 0)" width="4" x="1" y="9"/>
  <rect fill="#ffffff" height="2" id="svg_13" stroke="#000000" stroke-opacity="0" transform="matrix(1 0 0 1 0 0)" width="1" x="1" y="10"/>
  <rect fill="#ffffff" height="1" id="svg_14" stroke="#000000" stroke-opacity="0" transform="matrix(1 0 0 1 0 0)" width="3" x="2" y="11"/>
  <rect fill="#ffffff" height="3" id="svg_15" stroke="#000000" stroke-opacity="0" transform="matrix(1 0 0 1 0 0)" width="1" x="4" y="12"/>
  <rect fill="#ffffff" height="2" id="svg_16" stroke="#000000" stroke-opacity="0" transform="matrix(1 0 0 1 0 0)" width="3" x="1" y="13"/>
  <rect fill="#ffffff" height="1" id="svg_17" stroke="#000000" stroke-opacity="0" transform="matrix(1 0 0 1 0 0)" width="4" x="6" y="9"/>
  <rect fill="#ffffff" height="5" id="svg_18" stroke="#000000" stroke-opacity="0" transform="matrix(1 0 0 1 0 0)" width="2" x="7" y="10"/>
  <rect fill="#ffffff" height="1" id="svg_19" stroke="#000000" stroke-opacity="0" transform="matrix(1 0 0 1 0 0)" width="4" x="11" y="9"/>
  <rect fill="#ffffff" height="5" id="svg_20" stroke="#000000" stroke-opacity="0" transform="matrix(1 0 0 1 0 0)" width="1" x="11" y="10"/>
  <rect fill="#ffffff" height="2" id="svg_21" stroke="#000000" stroke-opacity="0" transform="matrix(1 0 0 1 0 0)" width="3" x="12" y="13"/>
  <rect fill="#ffffff" height="2" id="svg_22" stroke="#000000" stroke-opacity="0" width="2" x="13" y="11"/>
 </g>
</svg>